<svg width="20" height="20" viewBox="0 0 20 20" fill="none" xmlns="http://www.w3.org/2000/svg">
<path d="M17.1875 2.1875H2.8125C2.4668 2.1875 2.1875 2.4668 2.1875 2.8125V17.1875C2.1875 17.5332 2.4668 17.8125 2.8125 17.8125H17.1875C17.5332 17.8125 17.8125 17.5332 17.8125 17.1875V2.8125C17.8125 2.4668 17.5332 2.1875 17.1875 2.1875ZM6.82227 15.502H4.50391V8.04492H6.82227V15.502ZM5.66406 7.02539C5.39829 7.02539 5.13849 6.94658 4.91751 6.79893C4.69654 6.65127 4.5243 6.44141 4.4226 6.19587C4.32089 5.95033 4.29428 5.68015 4.34613 5.41949C4.39798 5.15883 4.52596 4.91939 4.71389 4.73147C4.90181 4.54354 5.14125 4.41556 5.40191 4.36371C5.66257 4.31186 5.93275 4.33847 6.17829 4.44018C6.42383 4.54188 6.6337 4.71411 6.78135 4.93509C6.929 5.15607 7.00781 5.41587 7.00781 5.68164C7.00586 6.42383 6.4043 7.02539 5.66406 7.02539ZM15.502 15.502H13.1855V11.875C13.1855 11.0098 13.1699 9.89844 11.9805 9.89844C10.7754 9.89844 10.5898 10.8398 10.5898 11.8125V15.502H8.27539V8.04492H10.498V9.06445H10.5293C10.8379 8.47852 11.5938 7.85938 12.7227 7.85938C15.0703 7.85938 15.502 9.4043 15.502 11.4121V15.502Z" fill="#181818"/>
</svg>
