<svg width="81" height="72" viewBox="0 0 81 72" fill="none" xmlns="http://www.w3.org/2000/svg">
<path d="M1.78655 24.1688V33.3897L1.84418 33.4185C2.59338 32.41 3.54429 31.8337 4.8698 31.8337C7.78015 31.8337 8.47172 33.9372 8.47172 36.4153V42.6971H6.68517V36.7611C6.68517 35.061 6.54109 33.5338 4.46638 33.5338C1.98826 33.5338 1.84418 35.839 1.84418 37.712V42.7259H0V24.1688H1.78655Z" fill="#005B66"/>
<path d="M10.1133 32.1507H12.2168L15.934 39.7291L19.363 32.1507H21.4089L13.5999 48.6619H11.554L14.9831 41.7462L10.1133 32.1507Z" fill="#005B66"/>
<path d="M27.4309 33.505C29.6497 33.505 30.9752 35.2051 30.9752 37.3374C30.9752 39.4698 29.765 41.3428 27.4597 41.3428C25.2122 41.3428 24.0019 39.3833 24.0019 37.3086C24.0019 35.3492 25.3562 33.505 27.4309 33.505ZM30.8888 42.6971H32.6753V24.1688H30.8888V33.6491H30.8311C29.9667 32.5253 28.6412 31.8625 27.2004 31.8625C24.0307 31.8625 22.1289 34.4559 22.1289 37.4527C22.1289 40.363 24.0884 43.0141 27.1716 43.0141C28.6124 43.0141 29.9379 42.4089 30.8023 41.2563H30.86V42.6971H30.8888Z" fill="#005B66"/>
<path d="M37.7494 33.303H37.8071C38.441 32.4674 38.9885 31.8623 40.1411 31.8623C40.7462 31.8623 41.2361 32.064 41.7548 32.3521L40.8903 33.9946C40.5445 33.7353 40.2852 33.5336 39.8241 33.5336C37.8359 33.5336 37.7494 36.0693 37.7494 37.4525V42.7257H35.9629V32.1504H37.7494V33.303Z" fill="#005B66"/>
<path d="M48.1512 33.5048C50.37 33.5048 51.8972 35.2913 51.8972 37.4236C51.8972 39.5848 50.37 41.3425 48.1512 41.3425C45.9324 41.3425 44.4052 39.5848 44.4052 37.4236C44.4052 35.2913 45.9324 33.5048 48.1512 33.5048ZM48.1512 43.0138C51.2345 43.0138 53.7126 40.5645 53.7126 37.4525C53.7126 34.3404 51.2633 31.8623 48.1512 31.8623C45.0392 31.8623 42.5898 34.3692 42.5898 37.4525C42.6187 40.5645 45.0968 43.0138 48.1512 43.0138Z" fill="#005B66"/>
<path d="M73.9982 18.8092C74.4016 18.5498 75.0356 18.3193 75.439 18.4346C74.0847 17.1379 72.2693 16.0429 70.4827 17.1379L62.2415 22.6992C61.8381 22.9586 61.2042 23.1891 60.8008 23.0738C62.1551 24.3705 63.9705 25.4655 65.757 24.3705L73.9982 18.8092Z" fill="#005B66"/>
<path d="M79.5602 24.3129C79.9637 24.0535 80.5976 23.823 81.001 23.9383C79.6467 22.6416 77.8313 21.5466 76.0448 22.6416L67.7748 28.2029C67.3713 28.4623 66.7374 28.6928 66.334 28.5775C67.6883 29.8742 69.5037 30.9692 71.2902 29.8742L79.5602 24.3129Z" fill="#005B66"/>
<path d="M76.7354 26.762C77.0236 29.3842 76.2744 32.0064 74.4014 33.8794C70.8571 37.4237 64.7482 37.0203 60.7141 32.9861C56.6799 28.952 56.2765 22.8431 59.8208 19.2988C61.6938 17.4258 64.2872 16.6478 66.9382 16.9648C63.221 15.841 59.3886 16.4461 56.8816 18.9531C52.9051 22.9296 53.6543 30.1622 58.6106 35.1185C63.538 40.0459 70.7706 40.8239 74.776 36.8474C77.2829 34.3117 77.888 30.4792 76.7354 26.762Z" fill="#005B66"/>
<path d="M48.1786 46.6156C49.7923 46.6156 50.772 48.2005 50.772 49.7277C50.772 51.1973 49.7923 52.8109 48.1786 52.8109C46.5649 52.8109 45.5852 51.2261 45.5852 49.7277C45.5564 48.1717 46.5649 46.6156 48.1786 46.6156ZM48.1786 43.8205C44.7496 43.8205 42.3867 46.2698 42.3867 49.6989C42.3867 53.1279 44.7208 55.5772 48.1786 55.5772C51.6364 55.5772 53.9705 53.1279 53.9705 49.6989C53.9705 46.2698 51.6076 43.8205 48.1786 43.8205Z" fill="#005B66"/>
<path d="M58.6121 45.2037H58.6697C59.3324 44.224 60.4274 43.8205 61.5512 43.8205C64.5192 43.8205 65.3837 45.9241 65.3837 48.4598V55.2026H62.2428V49.3531C62.2428 48.0276 62.3004 46.3275 60.5427 46.3275C58.6697 46.3275 58.6409 48.431 58.6409 49.7565V55.2314H55.5V44.1663H58.6409V45.2037H58.6121Z" fill="#005B66"/>
<path d="M70.222 48.2584C70.3661 47.1058 71.0865 46.0396 72.3255 46.0396C73.5358 46.0396 74.2561 47.1346 74.429 48.2584H70.222ZM77.397 50.2178V49.8432C77.397 46.5295 75.7834 43.8496 72.1526 43.8496C68.5795 43.8496 66.793 46.4718 66.793 49.8144C66.793 53.157 68.8965 55.5775 72.2967 55.5775C74.6019 55.5775 76.5326 54.3384 77.3106 52.1485L74.4002 51.6874C73.968 52.5519 73.3341 53.1858 72.2967 53.1858C70.6542 53.1858 70.1067 51.601 70.1067 50.2178H77.397Z" fill="#005B66"/>
</svg>
