<svg width="90" height="72" viewBox="0 0 90 72" fill="none" xmlns="http://www.w3.org/2000/svg">
<g clip-path="url(#clip0_900_7571)">
<path fill-rule="evenodd" clip-rule="evenodd" d="M0.5 0H72.5V72H0.5V0Z" fill="#F9F9F9"/>
<path fill-rule="evenodd" clip-rule="evenodd" d="M26.9489 25.6464C26.3737 25.7618 25.9135 25.9916 25.5684 26.1066V23.3459C26.9489 22.0803 27.179 19.6647 29.595 20.0095V22.3101C30.2853 22.195 30.8609 21.7348 31.3207 21.7348C31.7809 21.7348 31.5508 21.7348 31.7809 21.8499V23.6906C31.2057 24.1508 30.4003 24.496 29.8247 24.7257C29.8247 29.5577 29.8247 30.0178 30.0552 30.2479C30.7455 30.0178 31.3207 29.4426 31.6659 29.0975V31.7435C30.8605 32.3188 29.3649 32.894 28.9043 32.894C28.6743 32.894 26.9485 32.5489 26.9485 31.6285L26.9489 25.6464Z" fill="#CF4037"/>
<path fill-rule="evenodd" clip-rule="evenodd" d="M25.224 40.7167C26.8347 42.7872 30.7463 46.9289 30.7463 49.1144V68.557H19.2412C18.3208 65.9109 16.0195 64.9909 16.0195 62.69V44.743C15.3292 45.0881 10.3818 46.6988 9.34642 46.9289C9.00128 47.0443 7.39062 47.1594 7.39062 45.7784V23.5755C7.39062 22.9999 7.62072 22.3096 8.88624 21.7347C13.3734 19.894 21.8873 17.0178 23.3833 16.5576C24.4183 16.3275 25.224 16.6726 25.224 17.8231V40.7167Z" fill="#28539C"/>
<path fill-rule="evenodd" clip-rule="evenodd" d="M62.7329 11.9562C63.6537 11.9562 65.4944 12.3013 65.4944 13.7965V14.832C64.8034 15.0621 63.9988 15.4072 63.1935 15.6373C63.3081 14.1421 62.3881 14.2571 61.9276 14.2571C59.7417 14.2571 59.1661 16.9032 59.1661 18.2834C59.1661 19.779 59.0514 20.8144 61.0068 20.8144C62.5024 20.8144 62.3878 20.0091 63.3078 18.7436C63.9988 18.5135 64.8034 18.1683 65.6095 17.9382C65.7241 20.8144 62.848 23.3454 60.432 23.3454C57.4407 23.3454 56.8651 20.6994 56.8651 18.7439C56.8651 15.0624 58.7059 11.9562 62.7329 11.9562ZM53.4137 14.8323C54.5642 14.8323 56.2903 15.4076 56.2903 16.6731V21.8498C56.2903 22.3097 56.8651 23.0003 57.2103 23.5755C56.6354 24.0354 55.7147 24.6106 55.2545 24.6106C54.6796 24.6106 54.5642 24.3805 54.4491 24.2655C53.4141 24.8407 51.6884 26.3359 50.1924 26.3359C48.4671 26.3359 47.6617 24.6102 47.6617 23.4597C47.6617 20.1234 53.5295 19.4335 53.5295 18.283C53.5295 17.7078 53.1836 17.3626 52.7242 17.3626C50.9981 17.3626 50.8827 18.3981 48.4674 19.8937V16.9028C49.8469 15.6377 51.9181 14.8323 53.4137 14.8323ZM46.9711 17.0182H48.0061V19.6643C47.3159 19.6643 44.7845 21.0445 44.7845 22.31V27.7172C43.9791 28.0624 42.9437 28.2925 42.1384 28.6376V18.7439C42.714 18.3984 43.5186 18.1687 44.3243 17.7085C44.3243 18.2838 44.3243 18.7439 44.4397 19.0891C44.6701 18.5138 46.1658 17.4784 46.9711 17.0182ZM38.2268 19.4342C40.7582 19.4342 41.4485 22.31 41.4485 23.4605C41.4485 25.3012 35.1205 27.142 34.7754 27.257C35.3506 28.1774 35.1205 28.5226 36.271 28.5226C37.6519 28.5226 40.298 26.2213 41.4485 25.8765V26.7969C41.4485 29.2128 37.5365 30.9386 36.271 30.9386C33.97 30.9386 32.1289 28.9828 32.1289 26.9119C32.1289 23.8056 34.3152 19.4342 38.2268 19.4342Z" fill="#CF4037"/>
<path fill-rule="evenodd" clip-rule="evenodd" d="M15.5603 45.5486V50.2652C14.755 50.4957 13.2594 51.0705 12.7988 51.0705C11.4186 51.0705 10.6133 49.8046 10.6133 48.5399C10.6133 46.5841 14.1797 46.1235 15.5603 45.5486ZM15.5603 50.9555V54.8675C14.755 55.0972 13.2594 55.6728 12.7988 55.6728C11.3036 55.6728 10.8434 54.2918 10.8434 53.6016C10.8434 51.4157 14.1797 51.3006 15.5603 50.9555ZM15.5603 55.5574V59.4686C14.755 59.9288 13.835 60.2739 13.2594 60.2739C11.6487 60.2739 10.8434 59.4686 10.8434 57.9737C10.8434 56.133 14.4098 55.9025 15.5603 55.5574Z" fill="#28539C"/>
<path fill-rule="evenodd" clip-rule="evenodd" d="M37.6506 21.9646C38.1101 21.9646 38.5706 22.4248 39.0308 22.77C38.5706 23.9204 36.2697 24.3806 35.0038 24.8408C35.8095 23.3456 36.3847 21.9646 37.6506 21.9646ZM11.0733 21.7349V45.6639C10.6131 45.8937 9.4626 46.3542 9.00203 46.3542C8.54185 46.3542 8.08203 46.2388 8.08203 45.6639V23.8054C8.08203 22.6549 9.80736 22.1947 11.0733 21.7349ZM53.2974 20.8145C53.4128 22.3098 51.572 24.2656 50.5359 24.0355C50.3062 23.8054 50.0764 23.5757 50.0764 23.1151C50.0764 21.9646 53.0673 20.9296 53.2974 20.8145Z" fill="white"/>
<path fill-rule="evenodd" clip-rule="evenodd" d="M58.4771 58.6641C57.6718 59.4687 57.3266 60.3894 57.3266 61.4248C57.3266 62.5753 57.6718 63.496 58.4771 64.3014C59.2824 64.9917 60.2032 65.4511 61.2386 65.4511C62.3891 65.4511 63.3091 64.9917 64.0001 64.3014C64.8047 63.496 65.1506 62.5753 65.1506 61.4248C65.1506 60.3898 64.8047 59.469 64.0001 58.6641C63.3091 57.8587 62.3894 57.5129 61.2386 57.5129C60.2032 57.5129 59.2824 57.8584 58.4771 58.6641ZM64.4603 64.6461C63.655 65.5661 62.5037 66.0263 61.2386 66.0263C59.9727 66.0263 58.9377 65.5661 58.0169 64.6461C57.0962 63.8408 56.6367 62.6903 56.6367 61.4244C56.6367 60.1593 57.0962 59.1235 58.0169 58.2035C58.9377 57.2835 59.9727 56.8233 61.2386 56.8233C62.5037 56.8233 63.655 57.2835 64.4603 58.2035C65.3803 59.1235 65.8405 60.1593 65.8405 61.4244C65.8405 62.6903 65.3799 63.8408 64.4603 64.6461ZM62.1582 59.6991C61.9285 59.5837 61.5834 59.4687 61.0078 59.4687H60.3175V61.3101H61.1228C61.4679 61.3101 61.6984 61.3102 61.9281 61.1947C62.2733 61.0793 62.503 60.8496 62.503 60.3894C62.5034 60.0443 62.3891 59.8145 62.1582 59.6991ZM61.1232 58.8938C61.8135 58.8938 62.2737 59.0092 62.5034 59.1235C63.079 59.354 63.3087 59.6991 63.3087 60.3894C63.3087 60.8496 63.194 61.1947 62.8493 61.3101C62.6188 61.4248 62.3891 61.5399 62.0439 61.6553C62.5034 61.6553 62.7342 61.885 62.9639 62.1147C63.1944 62.3452 63.1944 62.5749 63.1944 62.9201V63.6103C63.3091 63.7258 63.3091 63.8408 63.3091 63.8408V63.9555H62.5037V63.2652C62.5037 62.6903 62.274 62.3452 61.9289 62.1147C61.8135 62.0001 61.4687 62.0001 61.0081 62.0001H60.3178V63.9551H59.3971V58.8934L61.1232 58.8938Z" fill="#28539C"/>
<path fill-rule="evenodd" clip-rule="evenodd" d="M24.418 39.9116C24.418 40.6019 23.0375 41.1775 22.2321 41.4072V51.416H21.772V38.7612C21.772 37.0358 19.8162 36.5753 18.8958 36.5753C17.5152 36.5753 16.0192 37.8412 16.0192 38.7612V43.8236C15.559 44.0533 15.2139 44.1688 14.6387 44.3985V20.3544L23.383 17.3632C24.1883 17.1331 24.418 17.8237 24.418 18.2836V39.9116Z" fill="white"/>
<path fill-rule="evenodd" clip-rule="evenodd" d="M24.19 24.4958C23.8448 24.3804 23.3846 24.0356 23.0395 24.0356C21.4288 24.0356 20.7385 24.7259 19.1275 26.5663V25.5312C19.1275 25.5312 19.2426 25.4166 18.7824 25.4166C18.3226 25.4166 17.2868 25.9914 16.5965 26.3366V36.3456C17.6319 36.0001 18.5523 35.77 19.473 35.1948V29.5571C19.473 28.7522 20.6235 27.3716 21.3138 27.3716C21.8894 27.3716 22.1195 27.7164 22.3492 28.1769V34.2741C22.3492 34.2741 22.1191 34.3891 22.5797 34.3891C23.0395 34.3891 23.6147 34.159 24.1903 33.9289V24.4958H24.19ZM11.0742 21.7347V45.6637L14.6407 44.3978L14.7557 20.3541L11.0742 21.7347Z" fill="#CF4037"/>
</g>
<defs>
<clipPath id="clip0_900_7571">
<rect width="89" height="72" fill="white" transform="translate(0.5)"/>
</clipPath>
</defs>
</svg>
