<svg width="208" height="72" viewBox="0 0 208 72" fill="none" xmlns="http://www.w3.org/2000/svg">
<rect width="208" height="72" fill="#F9F9F9"/>
<g clip-path="url(#clip0_900_7562)">
<path fill-rule="evenodd" clip-rule="evenodd" d="M6.65056 40.8962C5.58482 39.205 5.35305 36.956 5.35305 35.2299C5.35305 29.3551 10.6003 24.3958 16.0697 24.3958H33.2052L26.5546 31.1045H15.9533C11.6893 31.1056 6.53415 35.4267 6.65056 40.8962ZM13.1847 36.0871C13.625 34.6743 15.004 32.8666 16.3026 31.9163C13.8218 31.9163 11.0299 33.0995 8.89846 36.0871H13.1847ZM16.6148 32.7513C15.6422 33.6096 14.5754 34.9061 14.0324 36.0871H19.1759C18.6309 34.9071 17.5651 33.6096 16.6148 32.7513ZM8.46984 36.9571C7.83166 38.1043 7.51945 39.4029 7.40304 40.6994H12.211C12.211 39.4029 12.4439 38.1043 12.8704 36.9571H8.46984ZM13.7065 36.9571C13.2789 38.1043 13.081 39.4029 12.9656 40.6994H20.2417C20.1263 39.4029 19.9284 38.1043 19.5008 36.9571H13.7065ZM24.2157 36.0871C22.1752 33.0995 19.3834 31.9163 16.9386 31.9163C18.2012 32.8666 19.4998 34.6743 20.0438 36.0871H24.2157ZM20.357 36.9571C20.7973 38.1043 20.9931 39.4029 20.9931 40.6994H25.8011C25.7207 39.4029 25.3958 38.1043 24.7354 36.9571H20.357ZM8.89846 45.9371C11.0299 49.0517 13.8218 50.1185 16.3026 50.1185C15.004 49.1343 13.625 47.3256 13.1847 45.9371H8.89846ZM16.6148 49.366C17.5651 48.5077 18.6309 47.1171 19.1749 45.9371H14.0314C14.5754 47.1171 15.6411 48.5088 16.6148 49.366ZM12.8714 45.1952C12.4449 43.8966 12.2121 42.6234 12.2121 41.4518H7.4041C7.51945 42.7144 7.83272 44.0151 8.47089 45.1952H12.8714ZM19.4998 45.1952C19.9273 44.0151 20.1253 42.7144 20.2406 41.4518H12.9646C13.0799 42.7144 13.2778 44.0151 13.7054 45.1952H19.4998ZM20.0438 45.9371C19.4998 47.3256 18.2012 49.1343 16.9386 50.1185C19.3834 50.1185 22.1752 49.0517 24.2157 45.9371H20.0438ZM24.7364 45.1952C25.3968 44.0151 25.7217 42.7144 25.8022 41.4518H20.9931C20.9858 42.7259 20.771 43.9902 20.357 45.1952H24.7364ZM26.5546 41.0116C26.671 46.6895 21.5381 50.9768 17.2508 50.9768H6.65056L0 57.6041H17.1365C22.6049 57.6041 27.8532 52.6807 27.8532 46.8081C27.8532 45.0798 27.6447 42.833 26.5546 41.129V41.0116ZM76.6508 50.0984C72.1973 50.0984 69.0107 47.424 69.0107 43.2383C69.0107 39.1055 72.3138 36.357 76.6508 36.357C80.9879 36.357 84.2899 39.0886 84.2899 43.2383C84.2899 47.4229 81.0757 50.0984 76.6508 50.0984ZM152.78 36.6745V49.8211H148.338L148.27 48.4961H148.175C147.681 48.9385 146.655 50.1101 143.792 50.1101C140.615 50.1101 137.833 47.351 137.833 43.2351C137.833 39.4167 140.301 36.3687 144.084 36.3687C146.657 36.3687 147.709 37.5021 148.104 37.8651H148.222L148.267 36.6745H152.78ZM118.496 36.6798V49.8264H114.052L113.987 48.4993H113.891C113.397 48.9438 112.372 50.1153 109.509 50.1153C106.332 50.1153 103.549 47.3563 103.549 43.2425C103.549 39.422 106.017 36.374 109.8 36.374C112.374 36.374 113.426 37.5085 113.821 37.8704H113.938L113.981 36.6788L118.496 36.6798ZM96.9158 36.6904H101.498V49.8455H96.9158V36.6904ZM121.446 49.8169V31.2781H126.009V37.6313H126.059C126.382 37.4302 127.859 36.3697 130.028 36.3697C133.583 36.3697 136.196 39.2262 136.196 43.0076C136.196 47.7309 133.3 50.1101 130 50.1101C127.506 50.1101 126.238 48.948 125.926 48.6093H125.852L125.786 49.8169H121.446ZM76.6508 46.807C78.5082 46.807 79.6004 45.1803 79.6004 43.2372C79.6004 41.2719 78.56 39.6421 76.6508 39.6421C74.6558 39.6421 73.7002 41.2719 73.7002 43.2372C73.7002 45.1803 74.7945 46.807 76.6508 46.807ZM94.6975 46.245C94.4742 46.3075 93.8582 46.4662 93.4338 46.4662C92.5067 46.4662 91.4939 46.0323 91.4939 44.4236V39.9808H94.3683V36.6756H91.4939V32.4423H86.9198V36.6756H84.9206V39.9808H86.9198V45.1803C86.9198 48.0389 88.247 50.09 91.6304 50.09C92.6126 50.09 93.5143 49.9577 94.1345 49.8423L94.6975 46.245ZM42.6963 49.3396C43.9748 49.7259 45.9179 50.0836 47.9785 50.0836C51.8816 50.0836 55.7752 48.7004 55.7752 44.4162C55.7752 38.5351 47.6673 39.3489 47.6673 37.0058C47.6673 35.8067 48.913 35.5474 50.1353 35.5474C51.8287 35.5474 53.9728 36.3602 54.4491 36.5539L54.8174 32.5036C53.6342 32.1004 51.8382 31.8718 50.1502 31.8718C46.2978 31.8718 42.4963 33.3757 42.4963 37.192C42.4963 42.9695 50.583 41.7651 50.583 44.7972C50.583 45.9614 49.4178 46.4059 47.9329 46.4059C45.8925 46.4059 43.9737 45.3846 43.1429 45.0152L42.6963 49.3396ZM142.674 43.1134C142.674 45.2883 143.887 46.6461 145.458 46.6461C146.883 46.6461 148.269 45.3148 148.269 43.2933C148.269 41.255 147.039 39.8622 145.458 39.8622C143.823 39.8622 142.674 41.3238 142.674 43.1134ZM108.39 43.1219C108.39 45.2946 109.603 46.6525 111.175 46.6525C112.599 46.6525 113.986 45.3211 113.986 43.2997C113.986 41.2635 112.756 39.8707 111.175 39.8707C109.54 39.8707 108.39 41.3291 108.39 43.1219ZM67.8434 36.883C67.5015 36.7878 66.2463 36.356 64.5816 36.356C60.4626 36.356 57.3743 38.9341 57.3743 43.2288C57.3743 47.1319 60.1461 50.1016 64.3985 50.1016C66.2082 50.1016 67.5407 49.6179 67.8434 49.5269L67.6211 45.6947C67.2687 45.8534 66.3564 46.3752 65.3055 46.3752C63.4608 46.3752 62.1125 45.0692 62.1125 43.2288C62.1125 41.2984 63.555 40.0538 65.3584 40.0538C66.3755 40.0538 67.2814 40.5269 67.6211 40.6941L67.8434 36.883ZM172.264 49.8296H176.824V43.7442H176.874L180.925 49.8296H186L181.111 42.8594L185.876 36.6999H180.808L176.874 42.1196H176.824V31.295H172.264V49.8296ZM155.738 49.8275H160.186V43.0372C160.186 41.4455 161.24 40.3565 162.59 40.3565C164.129 40.3565 165.004 41.3566 165.004 43.0372V49.8275H169.454V41.9122C169.454 38.9319 167.536 36.3814 164.015 36.3814C161.665 36.3814 160.441 37.6588 159.883 38.1615H159.79L159.745 36.7052H155.737V49.8275H155.738ZM99.2102 30.0314C98.5293 30.0339 97.8769 30.3053 97.3952 30.7866C96.9135 31.2679 96.6415 31.9201 96.6385 32.601C96.6421 33.2816 96.9143 33.9332 97.396 34.414C97.8776 34.8948 98.5297 35.166 99.2102 35.1685C99.8901 35.1652 100.541 34.8936 101.022 34.4128C101.503 33.932 101.774 33.2809 101.778 32.601C101.775 31.9207 101.504 31.2691 101.023 30.7878C100.542 30.3066 99.8905 30.0347 99.2102 30.0314ZM131.461 43.2436C131.461 41.4846 130.459 39.9225 128.713 39.9225C127.176 39.9225 125.939 41.2349 125.939 43.2436C125.939 45.1888 126.952 46.5731 128.713 46.5731C130.301 46.5742 131.461 45.2523 131.461 43.2436Z" fill="#CC2229"/>
</g>
<defs>
<clipPath id="clip0_900_7562">
<rect width="195.5" height="34" fill="white" transform="translate(0 24)"/>
</clipPath>
</defs>
</svg>
