<svg width="103" height="26" viewBox="0 0 103 26" fill="none" xmlns="http://www.w3.org/2000/svg">
<path d="M5.205 25.2511C5.205 25.2511 4.8121 25.9785 5.47776 25.657L13.3618 21.8156V9.1875C13.3618 9.1875 13.2125 9.1875 13.1183 9.46675L5.205 25.2511Z" fill="#ED1E24"/>
<path d="M21.5221 25.2511C21.5221 25.2511 21.915 25.9785 21.2493 25.657L13.3652 21.8156V9.1875C13.3652 9.1875 13.5146 9.1875 13.6088 9.46675L21.5221 25.2511Z" fill="#9E0B0F"/>
<path d="M25.2498 14.3796C25.2498 14.3796 24.6004 14.1977 24.9251 13.3567L26.0941 9.42443L22.6943 10.1291C22.6943 10.1291 21.7754 10.4278 21.5383 9.42443L21.0025 8.0866L17.9502 11.4669C17.9502 11.4669 16.8884 12.1975 17.2878 10.6129L18.9049 3.71919L16.6351 4.94337C16.6351 4.94337 15.7974 5.57656 15.3038 4.40759L13.2678 0.260986L13.2646 0.423344L13.2613 0.260986L11.2481 4.40759C10.7578 5.57656 9.92977 4.94337 9.92977 4.94337L7.88407 3.6023L9.28684 10.6161C9.67974 12.2007 8.63091 11.4701 8.63091 11.4701L5.60782 8.08985L5.07529 9.42768C4.83825 10.431 3.92905 10.1323 3.92905 10.1323L0.561755 9.42768L1.71774 13.36C2.03921 14.201 1.39627 14.3828 1.39627 14.3828L0 14.9413L6.4813 20.192L13.1152 7.06051C13.1509 6.96959 13.2126 6.92737 13.2646 6.90464C13.3165 6.92737 13.3782 6.96959 13.4172 7.06051L20.1161 20.192L26.6591 14.9413L25.2498 14.3796Z" fill="#181818"/>
<path d="M46.9872 16.3277C47.7633 17.3214 48.1497 18.4579 48.1497 19.7372C48.1497 21.5816 47.5067 23.0428 46.2176 24.1209C44.9285 25.1989 43.1328 25.738 40.8306 25.738H30.5566V3.68335H40.4832C42.7237 3.68335 44.4772 4.1964 45.7468 5.2225C47.0132 6.2486 47.6464 7.64162 47.6464 9.40157C47.6464 10.7004 47.3054 11.7785 46.6268 12.639C45.9449 13.4995 45.0389 14.0937 43.9089 14.4282C45.185 14.7009 46.2111 15.3341 46.9872 16.3277ZM35.9274 12.6065H39.4473C40.3273 12.6065 41.0027 12.4117 41.4735 12.0253C41.9444 11.6389 42.1814 11.0674 42.1814 10.314C42.1814 9.56068 41.9444 8.98269 41.4735 8.58654C41.0027 8.19039 40.3273 7.98907 39.4473 7.98907H35.9274V12.6065ZM41.9769 20.7893C42.4672 20.3802 42.714 19.7892 42.714 19.0131C42.714 18.2371 42.4574 17.6298 41.9444 17.1915C41.4313 16.7531 40.7235 16.5323 39.824 16.5323H35.9274V21.403H39.8857C40.7884 21.403 41.4833 21.1985 41.9769 20.7893Z" fill="#ED1E24"/>
<path d="M55.4492 17.052V19.2341H58.9691V21.2635H55.4492V23.6307H59.4335V25.7381H52.8223V14.9446H59.4335V17.052H55.4492Z" fill="#ED1E24"/>
<path d="M95.8556 21.2896L95.703 21.4455L95.5341 21.6176L95.3685 21.3643L91.1765 14.9934H88.5723V21.7377L91.1765 19.0913L91.3291 19.3251L95.5341 25.6895H98.1384V18.9744L95.8556 21.2896Z" fill="#ED1E24"/>
<path d="M73.0293 21.1986C72.0877 21.1986 71.172 21.1986 70.2173 21.1986C70.4349 20.9389 70.6297 20.7018 70.8278 20.468C71.0226 20.2342 71.2174 19.9972 71.4188 19.7699C71.4545 19.7309 71.5162 19.692 71.5649 19.692C72.5325 19.6887 73.4969 19.6887 74.4646 19.6887C74.4841 19.6887 74.5035 19.6952 74.5393 19.6985C74.5393 19.7926 74.5393 19.8803 74.5393 19.9712C74.5393 20.796 74.5425 21.6208 74.536 22.4423C74.536 22.5494 74.51 22.6664 74.4581 22.7605C73.6333 24.3549 72.3409 25.3355 70.5777 25.6537C69.3243 25.881 68.1326 25.6472 67.0156 25.014C67.3144 24.6569 67.6131 24.3094 67.8988 23.9555C67.9768 23.8613 68.0287 23.9198 68.0937 23.949C69.1847 24.4231 70.2758 24.4166 71.3538 23.9133C72.0292 23.5983 72.5618 23.1145 72.9644 22.4845C72.9904 22.4423 73.0228 22.3936 73.0228 22.3481C73.0326 21.9715 73.0293 21.598 73.0293 21.1986Z" fill="#ED1E24"/>
<path d="M71.23 15.3213C70.9865 15.7337 70.743 16.1428 70.4962 16.5487C70.48 16.5747 70.4118 16.5877 70.3695 16.5812C68.3693 16.237 66.4405 17.4612 65.9339 19.429C65.6157 20.6564 65.8658 21.7831 66.6353 22.793C66.697 22.8774 66.7133 22.9326 66.6548 23.03C66.4178 23.41 66.197 23.7964 65.9664 24.1828C64.5214 22.8839 63.7519 20.2959 64.9566 17.971C66.2911 15.396 69.1356 14.6329 71.23 15.3213Z" fill="#ED1E24"/>
<path d="M51.3764 4.28735V12.1357H49.5645V4.28735H51.3764Z" fill="#181818"/>
<path d="M52.6762 7.56676C52.9068 7.10566 53.2185 6.75497 53.6146 6.50494C54.0108 6.25816 54.4524 6.13477 54.9395 6.13477C55.3551 6.13477 55.7221 6.21919 56.037 6.38804C56.352 6.55689 56.5923 6.78095 56.7644 7.05695V6.21919H58.5763V12.1355H56.7644V11.2977C56.589 11.5737 56.3423 11.7945 56.0273 11.9666C55.7123 12.1355 55.3454 12.2199 54.9297 12.2199C54.4492 12.2199 54.0108 12.0933 53.6146 11.8432C53.2185 11.5932 52.9068 11.236 52.6762 10.7717C52.4457 10.3073 52.332 9.77482 52.332 9.16435C52.332 8.55714 52.4457 8.02461 52.6762 7.56676ZM56.3877 8.10578C56.1377 7.84276 55.8292 7.71288 55.4688 7.71288C55.1083 7.71288 54.8031 7.84277 54.5498 8.09929C54.2998 8.35581 54.1732 8.713 54.1732 9.16435C54.1732 9.61571 54.2998 9.97614 54.5498 10.2424C54.7999 10.5087 55.1051 10.6418 55.4688 10.6418C55.8292 10.6418 56.1344 10.5119 56.3877 10.2489C56.6377 9.98588 56.7644 9.62869 56.7644 9.17734C56.7644 8.72599 56.641 8.3688 56.3877 8.10578Z" fill="#181818"/>
<path d="M59.9073 7.56676C60.1573 7.10566 60.508 6.75497 60.9561 6.50494C61.4042 6.25816 61.9205 6.13477 62.4985 6.13477C63.2421 6.13477 63.8623 6.3296 64.3591 6.71925C64.8559 7.10891 65.1839 7.65768 65.3397 8.36231H63.4109C63.2486 7.91095 62.9336 7.68366 62.466 7.68366C62.1348 7.68366 61.8685 7.81354 61.6705 8.07007C61.4724 8.32659 61.375 8.69676 61.375 9.17734C61.375 9.65792 61.4724 10.0281 61.6705 10.2846C61.8685 10.5411 62.1348 10.671 62.466 10.671C62.9336 10.671 63.2486 10.4437 63.4109 9.99238H65.3397C65.1839 10.684 64.8559 11.2295 64.3526 11.6257C63.8493 12.0218 63.2323 12.2199 62.4952 12.2199C61.914 12.2199 61.4009 12.0965 60.9528 11.8497C60.5047 11.603 60.154 11.249 59.904 10.7879C59.654 10.3268 59.5273 9.79105 59.5273 9.17734C59.5338 8.56363 59.6572 8.02461 59.9073 7.56676Z" fill="#181818"/>
<path d="M69.9246 12.1357L68.1225 9.65488V12.1357H66.3105V4.28735H68.1225V8.62554L69.9149 6.2194H72.1522L69.6908 9.18729L72.1717 12.1357H69.9246Z" fill="#181818"/>
<path d="M79.5219 12.1356H77.71L74.6771 7.54418V12.1356H72.8652V4.68994H74.6771L77.71 9.30413V4.68994H79.5219V12.1356Z" fill="#181818"/>
<path d="M81.9677 11.8497C81.5033 11.603 81.1396 11.249 80.8766 10.7879C80.6104 10.3268 80.4805 9.79105 80.4805 9.17734C80.4805 8.57012 80.6136 8.03435 80.8831 7.57C81.1526 7.10566 81.5196 6.75172 81.9871 6.50494C82.4547 6.25816 82.9775 6.13477 83.5555 6.13477C84.1335 6.13477 84.6595 6.25816 85.1239 6.50494C85.5915 6.75172 85.9584 7.10891 86.2279 7.57C86.4974 8.03435 86.6306 8.57012 86.6306 9.17734C86.6306 9.78456 86.4942 10.3203 86.2214 10.7847C85.9487 11.249 85.5785 11.603 85.1077 11.8497C84.6368 12.0965 84.114 12.2199 83.5328 12.2199C82.9515 12.2199 82.4288 12.0965 81.9677 11.8497ZM84.416 10.2684C84.6595 10.0151 84.7829 9.64818 84.7829 9.17734C84.7829 8.70326 84.6628 8.33958 84.429 8.0863C84.1952 7.83302 83.8997 7.70314 83.5555 7.70314C83.2016 7.70314 82.9093 7.82978 82.6755 8.07981C82.4417 8.32984 82.3248 8.69676 82.3248 9.17734C82.3248 9.65142 82.4385 10.0151 82.669 10.2684C82.8996 10.5217 83.1886 10.6515 83.5328 10.6515C83.877 10.6515 84.1725 10.5249 84.416 10.2684Z" fill="#181818"/>
<path d="M90.2012 6.43697C90.5194 6.24864 90.8734 6.15771 91.263 6.15771V8.07678H90.7662C90.3149 8.07678 89.9739 8.1742 89.7466 8.36902C89.5193 8.56385 89.4057 8.9048 89.4057 9.39187V12.139H87.5938V6.22266H89.4057V7.20979C89.6167 6.87858 89.883 6.6253 90.2012 6.43697Z" fill="#181818"/>
<path d="M95.4315 10.5997V12.1389H94.5093C93.8534 12.1389 93.3403 11.9798 92.9702 11.655C92.6032 11.3336 92.4181 10.8075 92.4181 10.0802V7.726H91.6973V6.21932H92.4181V4.77759H94.23V6.21932H95.4185V7.726H94.23V10.1029C94.23 10.2783 94.2723 10.4081 94.3567 10.4861C94.4411 10.564 94.584 10.603 94.7821 10.603H95.4315V10.5997Z" fill="#181818"/>
<path d="M101.707 6.8298C102.116 7.2779 102.321 7.89486 102.321 8.68067V12.1389H100.518V8.92421C100.518 8.52805 100.415 8.21958 100.21 8.00202C100.005 7.78446 99.7294 7.67406 99.382 7.67406C99.0346 7.67406 98.7585 7.78446 98.554 8.00202C98.3494 8.22282 98.2455 8.52805 98.2455 8.92421V12.1389H96.4336V4.29053H98.2455V7.01489C98.4306 6.75187 98.6806 6.54405 98.9988 6.38819C99.3171 6.23232 99.6742 6.15439 100.07 6.15439C100.752 6.15439 101.298 6.37844 101.707 6.8298Z" fill="#181818"/>
<path d="M62.1338 25.7381C62.9229 25.7381 63.5626 25.0984 63.5626 24.3094C63.5626 23.5203 62.9229 22.8806 62.1338 22.8806C61.3447 22.8806 60.7051 23.5203 60.7051 24.3094C60.7051 25.0984 61.3447 25.7381 62.1338 25.7381Z" fill="#ED1E24"/>
<path d="M50.083 25.7381C50.8721 25.7381 51.5118 25.0984 51.5118 24.3094C51.5118 23.5203 50.8721 22.8806 50.083 22.8806C49.294 22.8806 48.6543 23.5203 48.6543 24.3094C48.6543 25.0984 49.294 25.7381 50.083 25.7381Z" fill="#ED1E24"/>
<path d="M100.892 25.7381C101.681 25.7381 102.32 25.0984 102.32 24.3094C102.32 23.5203 101.681 22.8806 100.892 22.8806C100.103 22.8806 99.4629 23.5203 99.4629 24.3094C99.4629 25.0984 100.103 25.7381 100.892 25.7381Z" fill="#ED1E24"/>
<path d="M77.3565 25.7381C78.1456 25.7381 78.7852 25.0984 78.7852 24.3094C78.7852 23.5203 78.1456 22.8806 77.3565 22.8806C76.5674 22.8806 75.9277 23.5203 75.9277 24.3094C75.9277 25.0984 76.5674 25.7381 77.3565 25.7381Z" fill="#ED1E24"/>
<path d="M85.6143 25.7381C86.4034 25.7381 87.043 25.0984 87.043 24.3094C87.043 23.5203 86.4034 22.8806 85.6143 22.8806C84.8252 22.8806 84.1855 23.5203 84.1855 24.3094C84.1855 25.0984 84.8252 25.7381 85.6143 25.7381Z" fill="#ED1E24"/>
<path d="M90.8576 20.4875V25.0595V25.3745H91.1726V19.7212L88.5684 22.3676V25.3745H88.8833V25.0595V22.4942L90.8576 20.4875Z" fill="#181818"/>
<path d="M91.0129 25.6927C91.1904 25.6927 91.3343 25.5488 91.3343 25.3713C91.3343 25.1937 91.1904 25.0498 91.0129 25.0498C90.8353 25.0498 90.6914 25.1937 90.6914 25.3713C90.6914 25.5488 90.8353 25.6927 91.0129 25.6927Z" fill="#181818"/>
<path d="M88.7242 25.6893C88.9698 25.6893 89.169 25.4901 89.169 25.2444C89.169 24.9987 88.9698 24.7996 88.7242 24.7996C88.4785 24.7996 88.2793 24.9987 88.2793 25.2444C88.2793 25.4901 88.4785 25.6893 88.7242 25.6893Z" fill="#181818"/>
<path d="M95.856 20.1986V15.6233V15.3083H95.541V20.9649L98.1452 18.3185V15.3083H97.8302V15.6233V18.1918L95.856 20.1986Z" fill="#181818"/>
<path d="M95.7004 15.6363C95.8779 15.6363 96.0218 15.4924 96.0218 15.3149C96.0218 15.1373 95.8779 14.9934 95.7004 14.9934C95.5228 14.9934 95.3789 15.1373 95.3789 15.3149C95.3789 15.4924 95.5228 15.6363 95.7004 15.6363Z" fill="#181818"/>
<path d="M97.9898 15.8831C98.2355 15.8831 98.4346 15.684 98.4346 15.4383C98.4346 15.1926 98.2355 14.9934 97.9898 14.9934C97.7441 14.9934 97.5449 15.1926 97.5449 15.4383C97.5449 15.684 97.7441 15.8831 97.9898 15.8831Z" fill="#181818"/>
<path d="M72.1813 15.0127C71.7527 14.7074 71.3403 14.4119 70.889 14.0905C72.0969 13.8534 73.2659 13.6261 74.4511 13.3923C74.6232 14.584 74.792 15.7627 74.9674 16.9869C74.516 16.6687 74.1004 16.3732 73.662 16.0647C71.3014 18.88 68.9407 21.692 66.58 24.5041C66.5703 24.4976 66.5605 24.4911 66.5508 24.4846C68.4276 21.3316 70.298 18.1786 72.1813 15.0127Z" fill="#181818"/>
<path d="M82.9097 14.9446V25.7381H80.627V14.9446H82.9097Z" fill="#ED1E24"/>
</svg>
